<?xml version="1.0" standalone="no"?>
<!DOCTYPE svg PUBLIC "-//W3C//DTD SVG 20010904//EN"
 "http://www.w3.org/TR/2001/REC-SVG-20010904/DTD/svg10.dtd">
<svg version="1.0" xmlns="http://www.w3.org/2000/svg"
 width="1280.000000pt" height="1280.000000pt" viewBox="0 0 1280.000000 1280.000000"
 preserveAspectRatio="xMidYMid meet">
<metadata>
Created by potrace 1.16, written by Peter Selinger 2001-2019
</metadata>
<g transform="translate(0.000000,1280.000000) scale(0.100000,-0.100000)"
fill="#000000" stroke="none">
<path d="M9008 12789 c-21 -5 -66 -23 -100 -40 -57 -28 -251 -218 -1916 -1882
-2690 -2688 -3493 -3500 -3568 -3612 -115 -169 -190 -344 -236 -552 -19 -83
-22 -129 -22 -303 0 -174 3 -220 22 -303 46 -208 121 -383 236 -552 77 -114
860 -906 3533 -3576 1896 -1894 1898 -1896 1973 -1930 67 -30 86 -34 182 -37
88 -3 120 0 176 17 267 81 416 372 327 637 -14 41 -37 93 -52 117 -14 23
-1210 1229 -2657 2680 -1597 1602 -2644 2658 -2663 2689 -53 84 -68 140 -68
258 0 118 15 174 68 258 19 31 1074 1096 2672 2699 2362 2369 2643 2654 2669
2708 40 83 56 148 56 230 0 225 -140 421 -347 485 -70 21 -214 26 -285 9z"/>
</g>
</svg>
